<?xml version="1.0" encoding="utf-8"?>
<!-- Generator: Adobe Illustrator 21.0.0, SVG Export Plug-In . SVG Version: 6.00 Build 0)  -->
<svg version="1.1" xmlns="http://www.w3.org/2000/svg" xmlns:xlink="http://www.w3.org/1999/xlink" x="0px" y="0px"
	 viewBox="0 0 115 169" style="enable-background:new 0 0 115 169;" xml:space="preserve">
<style type="text/css">
	.st0{fill:#484767;}
</style>
<g id="Слой_1">
	<g transform="translate(0.000000,169.000000) scale(0.100000,-0.100000)">
		<path class="st0" d="M366.3,1386.8c0-1.8,3-13,6.7-24.2c6.1-18.8,7.6-20.9,13.3-19.4c6.4,1.8,7,0.3,9.1-15.4
			c4.2-34.2-2.1-84.4-18.5-149.5c-8.8-34.8-7.6-40.3,11.2-49.9c9.7-5.1,10.3-5.1,62.9,0.6c13.9,1.5,17.9,0.9,24.5-4.5
			c7.3-5.4,8.2-8.8,9.4-27.8c0.9-17.9,2.4-22.7,7.9-26.9c6.7-5.4,6.7-6.7,6.7-88.4c0-45.3,0.6-89.7,1.2-96.2c6.5,0.1,4.6,0,20.6,0
			h17.4l-1.3,89.3l-2.4,89.3l7,5.4c5.4,4.5,7.3,9.7,8.8,27.5c2.7,29.4,8.8,35.1,33.6,32.4c46.3-5.4,53.6-5.4,62.9-0.6
			c5.4,2.7,11.8,8.2,14.5,12.1c4.2,7,3.9,10-4.5,44.8c-15.7,62.9-21.8,116.8-16.6,148.3c1.8,10,3,11.2,8.5,9.7
			c6.1-1.5,7.3,0.6,13.9,21.2c3.9,12.7,6.4,23.6,5.4,24.5c-1.2,1.2-40.9-15.1-44.2-18.2c-0.6-0.6,0.3-3.9,2.4-7.3
			c2.4-4.8,2.1-9.7-1.8-20.9c-6.1-17.6-6.4-52.1-1.2-103.5c2.7-28.8,2.7-40.9,0.3-50.5c-6.1-22.1-5.4-22.1-104.7-22.1
			c-98.4,0-100.5,0.3-107.1,19.7c-3.3,10.3-3.3,19.1,0,54.5c5.1,53,4.5,83.5-1.8,102c-3.3,10.6-3.9,16-1.5,20.3
			c4.2,8.2,4.2,8.2-8.2,13.3c-6.4,2.7-16.6,7-22.7,9.4C369.6,1389.2,366.3,1389.5,366.3,1386.8z"/>
	</g>
</g>
<g id="Слой_2">
</g>
</svg>
