<?xml version="1.0" standalone="no"?>
<!DOCTYPE svg PUBLIC "-//W3C//DTD SVG 20010904//EN"
 "http://www.w3.org/TR/2001/REC-SVG-20010904/DTD/svg10.dtd">
<svg version="1.0" xmlns="http://www.w3.org/2000/svg"
 width="1024.000000pt" height="1024.000000pt" viewBox="0 0 1024.000000 1024.000000"
 preserveAspectRatio="xMidYMid meet">
<metadata>
Created by potrace 1.15, written by Peter Selinger 2001-2017
</metadata>
<g transform="translate(0.000000,1024.000000) scale(0.100000,-0.100000)"
fill="#000000" stroke="none">
<path d="M360 8997 c-50 -113 -64 -258 -35 -372 38 -150 148 -304 266 -374 41
-24 196 -116 344 -204 149 -88 362 -215 475 -282 113 -67 284 -168 380 -225
96 -57 267 -158 380 -225 113 -67 226 -134 253 -149 26 -15 47 -29 47 -32 0
-5 16 -13 -332 167 -147 77 -271 139 -277 139 -5 0 -72 -77 -148 -171 -76 -94
-148 -183 -160 -198 -19 -22 -13 8 43 224 35 138 64 251 64 252 0 1 -93 50
-207 109 -115 59 -244 126 -289 150 l-81 44 -154 -194 c-85 -107 -155 -194
-156 -192 -1 1 27 107 62 236 59 217 63 236 47 248 -45 35 -485 253 -493 245
-22 -22 -51 -133 -56 -212 -9 -141 26 -251 122 -386 79 -112 98 -124 660 -414
292 -151 562 -291 600 -311 39 -20 190 -99 338 -174 353 -182 354 -185 17 -38
-113 49 -208 88 -211 87 -3 -2 -56 -87 -119 -189 -62 -103 -115 -185 -116
-183 -2 2 12 103 32 226 19 123 34 224 32 225 -15 12 -542 235 -547 232 -3 -2
-62 -92 -130 -200 -69 -108 -126 -194 -128 -193 -1 2 12 110 30 241 30 214 32
239 18 248 -9 5 -128 58 -266 118 l-250 109 -13 -31 c-23 -54 -34 -140 -30
-228 8 -147 64 -265 184 -386 39 -40 89 -81 111 -92 44 -23 1576 -690 1673
-728 22 -9 39 -18 37 -20 -2 -2 -102 29 -223 70 -187 63 -221 72 -230 60 -7
-8 -60 -98 -119 -199 -60 -102 -110 -184 -112 -182 -1 2 8 106 22 232 14 125
24 229 23 229 -2 1 -122 42 -268 90 -146 49 -270 91 -275 93 -6 2 -19 -16 -30
-39 -48 -109 -66 -150 -114 -251 -28 -59 -51 -112 -51 -117 0 -5 -5 -12 -11
-16 -8 -5 -10 61 -8 239 2 135 1 248 -2 251 -14 15 -454 155 -461 148 -4 -4
-14 -45 -20 -89 -25 -169 30 -333 156 -470 115 -124 117 -124 681 -313 470
-158 534 -177 815 -240 323 -73 357 -86 120 -45 -80 14 -148 25 -152 25 -3 0
-32 -81 -64 -180 -32 -99 -61 -180 -64 -180 -3 0 -12 75 -19 168 -7 92 -15
179 -18 193 -5 27 -5 27 -291 73 -228 38 -287 44 -293 34 -5 -7 -39 -97 -76
-200 -37 -104 -71 -188 -74 -188 -3 0 -14 89 -24 198 -10 108 -21 206 -25 217
-6 18 -37 25 -261 61 -187 31 -256 39 -262 30 -5 -6 -6 -51 -3 -101 9 -151 62
-269 167 -374 66 -65 170 -133 239 -155 25 -9 203 -41 396 -72 l351 -57 467
52 c257 29 471 51 477 49 6 -2 -55 -14 -135 -27 -80 -13 -146 -27 -146 -31 0
-4 11 -92 25 -195 14 -103 24 -189 22 -192 -3 -2 -51 80 -107 182 -90 163
-105 186 -124 182 -12 -3 -133 -24 -271 -47 -137 -23 -253 -45 -256 -49 -3 -3
6 -95 21 -203 14 -109 22 -194 18 -190 -4 4 -51 89 -104 187 -53 99 -97 181
-98 182 -3 3 -470 -78 -475 -83 -9 -9 46 -151 79 -202 101 -156 314 -271 504
-272 45 0 387 55 910 146 109 19 201 33 202 31 2 -2 -164 -54 -369 -116 -585
-178 -530 -158 -522 -189 9 -40 72 -128 116 -162 90 -72 242 -112 341 -90 43
9 893 264 955 287 59 21 -33 -27 -343 -178 -192 -94 -353 -175 -358 -180 -17
-16 76 -119 143 -160 78 -47 151 -63 258 -56 91 5 61 -7 437 179 99 48 181 88
183 88 2 0 3 -7 3 -15 0 -9 9 -33 20 -54 l19 -38 -67 -5 c-163 -12 -275 -116
-275 -258 0 -64 25 -129 72 -182 l31 -36 -98 -42 c-53 -23 -171 -73 -261 -111
-214 -91 -272 -122 -322 -176 -132 -144 -124 -315 19 -391 33 -18 65 -32 72
-32 6 0 34 25 61 55 40 43 84 73 216 145 l166 92 41 -46 42 -45 -168 -146
c-182 -159 -221 -208 -233 -297 -17 -123 63 -275 181 -344 45 -27 120 -51 173
-56 33 -3 34 -1 46 45 6 26 20 57 31 69 29 34 588 643 673 733 58 62 70 71 51
40 -13 -22 -141 -229 -285 -460 -144 -231 -266 -433 -273 -448 -20 -46 -14
-126 12 -183 53 -113 185 -215 328 -254 70 -19 100 -22 193 -18 60 3 117 8
127 12 9 4 19 23 23 43 6 34 160 475 279 802 31 85 54 156 52 158 -2 2 -31 -1
-65 -6 -70 -11 -153 -1 -239 29 -65 23 -102 54 -102 87 0 32 43 73 76 73 62 0
104 36 158 136 40 73 34 98 -34 145 -113 79 -239 99 -397 65 -81 -17 -194 -53
-206 -66 -12 -11 17 -64 48 -88 14 -12 40 -24 58 -27 45 -10 67 -33 67 -70 0
-52 -45 -77 -172 -95 -156 -23 -314 46 -384 166 -22 37 -27 59 -30 145 -3 83
-1 108 14 143 34 76 104 116 204 116 58 0 90 -12 136 -50 20 -17 40 -30 44
-30 5 0 8 16 8 35 l0 35 124 -6 c85 -5 125 -4 130 4 10 16 -17 27 -145 56
l-115 27 -11 84 c-15 120 -53 168 -134 168 -50 0 -87 -26 -115 -80 l-21 -41
-22 38 c-65 117 20 235 169 235 75 -1 78 -2 325 -149 151 -91 216 -126 230
-126 3 0 5 7 5 15 0 9 -34 48 -75 88 l-74 72 10 75 c6 41 9 112 7 157 -3 77
-5 85 -34 114 -44 43 -105 50 -154 17 -45 -31 -61 -63 -58 -115 3 -40 2 -41
-16 -25 -27 25 -66 112 -66 150 0 123 120 204 247 167 49 -14 69 -28 138 -98
179 -180 418 -541 564 -849 120 -253 158 -372 145 -456 -11 -75 -107 -197
-186 -235 -23 -11 -27 -17 -14 -17 16 0 18 -5 12 -42 -90 -554 -138 -889 -140
-963 -1 -105 15 -147 85 -209 95 -86 236 -126 474 -133 384 -12 609 75 661
256 14 46 15 68 5 145 -14 105 -69 469 -111 734 -35 214 -35 212 -13 212 9 0
-7 15 -37 33 -52 30 -112 97 -147 162 -27 49 -21 155 14 250 115 310 325 677
556 973 161 206 256 269 366 242 81 -19 141 -93 141 -172 0 -38 -39 -125 -66
-150 -18 -16 -19 -15 -16 32 3 43 0 52 -30 85 -45 49 -106 58 -158 23 -19 -13
-40 -35 -47 -48 -15 -29 -16 -145 -3 -245 l9 -70 -74 -73 c-65 -63 -91 -102
-69 -102 14 0 126 62 259 142 211 128 220 132 295 133 151 0 237 -123 166
-239 l-24 -40 -6 31 c-14 63 -94 110 -159 92 -65 -18 -90 -62 -102 -176 l-7
-71 -116 -27 c-65 -15 -126 -32 -136 -37 -18 -10 -18 -11 -1 -21 11 -6 60 -7
132 -3 l113 7 0 -36 c0 -19 3 -35 6 -35 4 0 29 17 57 37 40 30 61 38 106 41
110 8 194 -37 226 -121 22 -61 15 -218 -13 -273 -61 -121 -232 -197 -390 -174
-127 18 -172 43 -172 95 0 38 20 57 77 74 45 12 106 74 101 101 -4 16 -104 53
-210 76 -171 37 -296 12 -425 -84 -51 -38 -44 -75 34 -194 27 -40 75 -68 117
-68 33 0 76 -41 76 -73 0 -71 -191 -136 -339 -116 -35 5 -66 8 -68 6 -2 -2 58
-174 133 -383 156 -435 204 -577 204 -598 0 -24 44 -31 180 -30 108 0 135 4
197 26 215 77 353 269 301 419 -6 19 -71 129 -143 244 -169 270 -420 676 -430
695 -11 20 -36 47 361 -383 343 -371 410 -453 416 -506 3 -24 6 -26 41 -23
249 22 422 283 323 486 -24 49 -52 78 -197 203 -93 81 -169 149 -169 152 0 3
18 26 39 50 l38 44 104 -58 c205 -114 237 -135 282 -185 25 -27 50 -50 56 -50
21 0 106 48 127 72 45 49 56 76 56 139 0 48 -7 74 -31 124 -57 116 -112 150
-481 306 -107 45 -210 88 -228 96 l-33 14 32 36 c47 54 72 119 72 183 0 142
-112 246 -275 258 l-67 5 19 38 c11 21 20 45 20 54 0 8 2 15 5 15 2 0 124 -60
271 -132 l266 -133 116 0 c106 0 122 3 174 27 32 15 74 39 93 54 32 24 105
113 105 128 0 3 -162 86 -360 183 -198 97 -359 177 -357 179 1 1 215 -62 476
-141 260 -80 488 -147 506 -151 102 -19 291 50 364 132 52 59 96 146 79 154
-7 4 -212 67 -455 140 -244 73 -441 135 -440 137 2 1 242 -38 533 -87 291 -49
554 -90 585 -90 187 0 397 115 501 274 35 54 88 190 77 200 -5 5 -472 87 -474
83 -1 -1 -48 -87 -104 -192 -62 -117 -101 -180 -101 -165 1 14 11 104 24 200
13 96 21 178 17 181 -3 4 -118 26 -256 49 -137 23 -259 44 -271 46 -18 5 -35
-20 -127 -188 -59 -106 -107 -190 -107 -187 0 3 11 92 25 197 14 105 25 196
25 201 0 4 -65 19 -145 32 -79 12 -143 25 -140 27 2 2 217 -19 478 -48 l474
-52 349 56 c192 32 369 64 394 72 73 24 175 91 243 159 111 112 167 248 167
408 l0 79 -27 -6 c-16 -3 -131 -22 -258 -42 -126 -20 -234 -40 -238 -44 -5 -4
-18 -103 -30 -219 -11 -116 -23 -211 -26 -211 -3 0 -37 88 -76 196 -38 108
-73 198 -77 200 -4 3 -135 -16 -292 -42 l-284 -46 -6 -32 c-2 -17 -10 -104
-17 -193 -7 -90 -15 -163 -18 -163 -3 0 -31 77 -61 171 -30 93 -57 174 -60
180 -5 6 -69 -1 -185 -20 -99 -17 -181 -29 -183 -27 -2 3 23 10 55 16 440 91
579 129 1088 299 565 190 566 190 683 316 134 143 184 311 151 502 -6 35 -15
63 -19 63 -4 0 -109 -34 -234 -76 l-226 -76 -2 -251 -3 -252 -98 215 c-55 118
-100 216 -101 218 -4 3 -539 -179 -548 -187 -3 -3 5 -105 18 -226 13 -121 23
-223 21 -228 -2 -7 -27 33 -166 270 l-71 122 -222 -75 c-121 -41 -222 -73
-224 -71 -2 2 61 30 139 64 360 154 1532 665 1570 684 65 33 178 153 225 238
57 104 76 188 69 309 -3 54 -13 118 -22 144 -15 42 -19 46 -38 38 -12 -5 -130
-56 -262 -113 -190 -84 -241 -109 -243 -126 -2 -11 11 -117 27 -236 17 -120
31 -222 31 -229 0 -11 -113 159 -205 309 -27 44 -50 82 -52 84 -3 5 -519 -219
-539 -234 -11 -8 -7 -46 21 -225 19 -118 34 -219 32 -223 -1 -4 -54 76 -116
178 -63 102 -117 188 -120 189 -3 2 -102 -38 -220 -90 -118 -52 -216 -92 -218
-90 -2 2 180 98 404 214 224 116 608 314 853 440 463 239 504 265 580 366 93
123 135 252 127 391 -5 90 -40 225 -59 225 -12 0 -468 -235 -489 -252 -15 -12
-11 -34 47 -248 35 -129 62 -236 60 -238 -2 -1 -12 10 -22 25 -11 16 -79 104
-153 196 l-134 167 -31 -19 c-17 -10 -147 -78 -289 -150 -204 -105 -257 -136
-253 -149 35 -117 122 -482 112 -471 -7 8 -79 96 -160 197 -81 100 -152 182
-157 182 -6 0 -130 -62 -277 -139 -346 -179 -332 -172 -332 -167 0 2 46 31
103 64 56 32 237 139 402 237 165 98 433 257 595 353 162 96 376 223 475 282
99 59 224 132 277 164 76 44 109 71 153 124 62 75 118 179 140 262 18 69 19
209 1 275 -14 53 -52 145 -60 145 -2 0 -82 -55 -178 -122 -96 -68 -190 -134
-211 -148 -20 -14 -37 -29 -37 -34 0 -8 32 -109 125 -393 8 -24 12 -43 11 -43
-2 0 -70 71 -151 158 -81 86 -151 158 -155 160 -4 1 -88 -46 -186 -106 -99
-59 -225 -134 -281 -166 -57 -32 -103 -62 -103 -66 0 -5 27 -104 60 -221 34
-116 60 -213 58 -214 -2 -1 -59 60 -128 137 -69 76 -139 153 -157 170 l-32 31
-43 -26 c-76 -45 -497 -252 -668 -330 -218 -98 -478 -202 -672 -268 l-158 -54
-21 -65 c-105 -318 -297 -721 -490 -1030 l-84 -135 -6 165 c-10 272 -38 418
-99 513 -58 92 -38 220 70 447 74 156 93 216 111 346 15 114 9 131 -23 69 -30
-58 -184 -211 -273 -272 -33 -22 -147 -83 -253 -135 l-193 -95 -87 18 c-142
29 -286 41 -485 40 -201 0 -340 -12 -479 -40 l-86 -18 -199 98 c-216 105 -314
172 -425 285 -37 38 -81 94 -98 124 l-31 55 6 -80 c10 -132 41 -239 116 -395
72 -153 97 -236 100 -336 2 -50 -2 -67 -25 -101 -64 -97 -94 -246 -105 -523
l-6 -165 -81 130 c-106 171 -209 361 -290 537 -65 140 -175 413 -208 513 l-16
51 -158 53 c-326 110 -633 242 -1072 463 l-315 157 -25 -24 c-14 -13 -83 -89
-155 -168 -71 -80 -131 -144 -133 -142 -1 1 25 96 58 210 33 115 60 214 60
220 0 7 -57 45 -127 85 -71 41 -197 116 -281 167 -84 52 -156 93 -161 91 -5
-2 -75 -74 -156 -160 -81 -87 -149 -158 -150 -158 -2 0 26 89 61 198 36 108
67 208 70 222 4 22 -5 32 -82 85 -48 33 -143 99 -211 148 -67 48 -125 87 -128
87 -4 0 -15 -19 -25 -43z m3943 -1622 c104 -52 216 -114 251 -139 80 -57 213
-197 306 -322 41 -55 98 -131 127 -170 29 -40 64 -79 78 -88 22 -15 25 -23 25
-79 0 -72 -13 -97 -64 -121 -51 -24 -61 -21 -64 21 -1 21 -12 58 -25 83 l-22
45 -5 -51 c-5 -48 -31 -104 -49 -104 -4 0 -23 10 -41 23 -22 14 -54 60 -95
134 -65 117 -153 236 -187 254 -11 6 -18 13 -15 15 8 9 101 -42 216 -120 61
-40 111 -71 111 -69 0 11 -129 183 -196 263 -111 131 -201 210 -364 319 -106
71 -192 145 -246 213 -74 92 -74 96 2 39 38 -29 154 -95 257 -146z m1897 111
c-69 -83 -148 -151 -284 -242 -176 -117 -308 -249 -456 -456 -39 -54 -70 -100
-70 -102 0 -3 35 19 78 48 102 70 241 150 248 143 3 -3 -3 -10 -14 -16 -34
-18 -116 -131 -183 -250 -70 -125 -114 -170 -147 -152 -24 13 -42 60 -42 110
l0 36 -22 -33 c-11 -19 -23 -56 -26 -83 -5 -55 -13 -59 -68 -33 -45 22 -64 60
-64 128 0 49 3 58 26 72 14 10 83 95 155 191 133 179 288 345 373 403 27 18
132 75 235 126 102 51 215 114 251 141 36 28 67 48 69 47 2 -2 -25 -37 -59
-78z m-3429 -120 l254 -135 29 -71 29 -71 -28 -29 c-76 -80 -14 -223 95 -219
53 2 54 1 21 -26 -16 -14 -37 -45 -46 -70 -44 -115 45 -231 170 -224 25 2 47
0 51 -4 4 -3 -12 -27 -35 -53 -44 -50 -56 -90 -48 -160 12 -107 124 -185 228
-157 53 14 62 -5 23 -47 -52 -54 -67 -130 -39 -198 45 -106 158 -150 264 -101
55 24 70 10 40 -37 -41 -66 -18 -153 50 -189 28 -14 28 -14 18 -82 -11 -84 -1
-464 16 -590 11 -82 11 -93 -3 -93 -14 0 -102 13 -179 26 l-34 5 7 95 c3 52 5
94 3 94 -1 0 -110 -36 -242 -80 -132 -44 -241 -80 -243 -80 -7 0 43 58 146
169 60 64 126 135 147 159 l37 42 -131 0 c-74 0 -131 4 -131 9 0 5 11 50 24
100 l24 91 -56 -6 c-92 -9 -557 -42 -559 -39 -2 1 96 64 218 140 121 75 217
141 212 145 -4 4 -48 22 -98 40 -49 18 -105 39 -123 47 l-32 13 90 80 90 79
-238 76 c-130 42 -280 91 -332 108 l-95 32 45 3 c25 2 150 9 279 15 l235 12
-132 85 c-73 47 -132 88 -132 92 0 3 38 36 85 73 l86 67 -253 180 c-139 99
-259 185 -266 192 -8 8 107 -15 255 -50 147 -34 269 -62 270 -61 1 1 -34 49
-77 107 -43 58 -77 106 -75 108 1 2 62 9 135 17 73 8 135 16 138 19 3 3 -80
94 -184 202 -188 196 -269 284 -262 284 2 0 119 -61 259 -134z m4938 107 c-13
-16 -67 -73 -120 -128 -180 -187 -310 -328 -306 -331 2 -2 63 -10 137 -19 73
-8 134 -16 137 -18 2 -2 -32 -51 -76 -108 -44 -57 -79 -105 -78 -106 1 -1 122
27 269 61 147 35 265 59 263 55 -3 -4 -120 -89 -260 -189 -140 -101 -255 -186
-255 -190 0 -4 38 -37 85 -73 l86 -65 -73 -48 c-40 -26 -102 -65 -138 -88
l-65 -41 235 -12 c368 -18 344 -12 210 -56 -63 -21 -207 -68 -320 -104 -113
-36 -209 -69 -213 -73 -5 -4 30 -42 78 -84 l86 -77 -33 -13 c-18 -7 -73 -28
-123 -46 -49 -18 -94 -36 -98 -40 -5 -4 91 -69 212 -145 122 -76 220 -139 219
-140 -3 -2 -464 30 -559 39 l-57 5 24 -87 c13 -48 24 -93 24 -99 0 -10 -31
-13 -125 -13 -69 0 -125 -3 -125 -7 0 -5 72 -86 161 -182 88 -95 158 -175 156
-177 -2 -2 -111 32 -242 76 -132 44 -241 80 -242 80 -2 0 0 -42 3 -94 l7 -94
-29 -5 c-65 -13 -186 -28 -190 -24 -3 2 3 74 12 158 12 112 15 215 12 377 -2
122 -1 222 3 222 21 0 70 56 80 92 9 35 8 46 -14 89 -31 62 -18 78 38 49 187
-95 368 158 220 306 -35 35 -27 57 15 42 71 -24 168 12 211 81 23 36 29 56 29
104 0 67 -9 88 -57 139 -20 20 -33 41 -29 46 3 6 24 8 46 5 89 -12 172 51 187
141 8 48 -20 118 -58 151 -33 27 -32 28 21 25 41 -1 98 33 117 70 7 14 13 44
13 67 0 33 -7 50 -31 78 l-31 35 28 71 29 70 230 121 c127 66 239 127 250 134
32 23 40 16 14 -13z m-3339 -550 c98 -63 98 -62 32 -93 -61 -29 -138 -92 -174
-142 l-22 -31 26 6 c15 4 33 9 40 12 12 5 15 -8 15 -67 0 -45 6 -87 15 -109
24 -55 87 -119 143 -145 68 -32 99 -31 124 5 l20 28 -56 6 c-108 11 -183 95
-183 203 0 29 5 65 12 79 10 23 16 25 81 25 l70 0 -26 -24 c-52 -48 -46 -124
13 -164 39 -26 78 -24 119 6 33 24 40 47 13 40 -31 -8 -62 18 -62 52 0 31 30
56 55 47 7 -3 33 -44 59 -91 26 -47 51 -88 56 -91 17 -11 11 -20 -37 -56 -52
-39 -93 -92 -119 -154 l-16 -40 54 57 c83 86 136 92 154 19 7 -29 13 -39 17
-29 9 25 132 108 158 108 45 0 100 21 134 52 l35 30 35 -30 c35 -31 89 -52
135 -52 29 0 147 -81 157 -107 5 -11 10 -2 17 28 18 73 71 67 153 -18 46 -48
52 -52 43 -27 -28 75 -76 134 -147 184 l-21 15 48 85 c73 127 72 127 104 112
51 -23 20 -109 -35 -95 -47 13 -4 -39 48 -57 24 -9 39 -8 66 4 70 29 86 120
30 172 l-26 24 70 0 c69 0 71 -1 83 -30 20 -48 9 -141 -22 -188 -32 -48 -114
-92 -171 -92 l-38 0 21 -30 c26 -36 55 -38 120 -9 112 50 185 183 161 290 -9
39 -8 41 12 35 12 -3 33 -9 46 -13 l25 -6 -22 31 c-35 49 -116 116 -171 143
-28 13 -51 27 -51 30 0 12 136 97 166 103 28 6 36 2 78 -45 106 -118 161 -317
136 -498 -29 -214 -128 -372 -284 -455 l-50 -26 -30 28 c-74 70 -177 124 -265
140 l-50 9 -6 -66 c-17 -179 -60 -264 -197 -399 -96 -93 -158 -178 -158 -214
0 -34 -16 -18 -28 28 -10 38 -33 67 -137 174 -163 167 -187 215 -210 422 l-6
57 -32 -6 c-94 -17 -237 -92 -291 -152 -23 -25 -46 -17 -132 44 -142 102 -227
289 -227 500 1 169 50 314 142 417 40 44 47 48 75 42 17 -4 56 -22 86 -41z
m-321 -742 c62 -102 145 -181 245 -232 l84 -43 -28 -41 c-40 -58 -77 -151 -91
-229 l-13 -68 -13 63 c-14 72 -58 165 -137 292 -87 140 -134 282 -151 457 l-6
65 34 -97 c19 -53 53 -128 76 -167z m2236 121 c-28 -164 -76 -285 -171 -432
-59 -92 -92 -164 -109 -242 -7 -35 -14 -52 -14 -39 -3 69 -54 209 -105 284
l-24 35 59 27 c162 74 296 240 355 437 25 83 30 49 9 -70z m-1691 -410 c4 -33
2 -70 -3 -85 -21 -55 -23 -143 -6 -258 18 -122 22 -222 11 -279 l-7 -35 21 38
c17 30 24 68 30 165 12 159 17 195 35 239 l14 34 59 -48 c32 -27 94 -74 139
-106 121 -85 179 -141 209 -203 l27 -55 12 34 c23 68 88 133 230 232 39 27 96
70 127 97 l57 49 15 -30 c19 -36 25 -73 35 -231 6 -87 14 -139 28 -170 l19
-45 -4 96 c-3 60 2 141 13 215 17 118 15 206 -6 261 -5 15 -7 52 -3 85 8 67
18 71 90 39 133 -60 223 -228 258 -477 8 -60 24 -133 34 -162 l18 -54 12 84
c12 87 49 207 98 317 l28 63 18 -35 c26 -51 55 -166 73 -288 26 -180 27 -173
-65 -258 -93 -84 -74 -86 -182 18 -32 30 -59 53 -61 50 -6 -7 157 -409 164
-401 3 4 39 91 79 195 40 103 75 185 77 183 17 -16 3 -392 -15 -421 -4 -7 -37
-40 -74 -74 l-68 -63 -27 22 c-16 12 -52 44 -81 72 -29 28 -55 49 -57 46 -3
-2 -1 -20 4 -39 5 -19 26 -104 46 -189 20 -85 38 -162 41 -170 3 -8 48 64 103
163 54 97 101 180 105 185 9 8 4 -23 -26 -178 -35 -187 -40 -197 -123 -280
l-75 -74 -76 74 c-61 60 -75 70 -71 50 3 -14 18 -87 33 -164 l27 -139 -29 -20
c-16 -11 -69 -61 -118 -111 -84 -85 -88 -88 -62 -43 16 26 27 49 25 51 -2 2
-42 -27 -89 -65 -47 -38 -89 -69 -95 -69 -5 1 -48 32 -95 70 -47 37 -86 65
-87 62 -2 -4 28 -90 67 -191 l69 -185 -30 -53 c-17 -29 -33 -53 -36 -53 -3 0
-21 11 -40 26 -39 30 -40 28 -12 -37 l22 -50 -38 -82 c-21 -45 -43 -88 -49
-94 -11 -12 -153 -53 -183 -53 -8 0 18 63 72 170 47 94 83 170 80 170 -3 0
-48 -31 -100 -70 -52 -38 -99 -70 -105 -70 -5 0 -52 32 -104 70 -52 39 -97 70
-100 70 -4 0 32 -76 79 -170 52 -105 80 -170 72 -170 -20 0 -150 35 -170 46
-9 5 -35 48 -58 94 -45 92 -45 87 -4 184 7 17 3 15 -27 -7 -19 -15 -38 -27
-41 -27 -3 0 -19 24 -36 54 l-31 54 70 183 c39 101 69 187 68 191 -2 5 -43
-24 -91 -63 -49 -39 -94 -69 -100 -66 -7 2 -49 34 -94 71 -46 37 -83 64 -83
61 0 -3 9 -24 20 -46 19 -35 12 -31 -62 44 -46 46 -96 94 -112 106 l-30 22 29
147 c15 81 30 154 33 162 3 8 -30 -19 -72 -60 l-76 -74 -74 73 c-73 73 -75 76
-96 160 -23 95 -60 294 -55 299 1 2 37 -59 78 -135 91 -167 126 -230 128 -223
0 3 22 95 49 205 26 110 47 202 44 204 -2 2 -38 -28 -80 -68 -42 -39 -79 -71
-83 -71 -3 1 -37 30 -75 65 l-68 63 -9 84 c-5 47 -8 144 -7 218 l3 134 64
-165 c35 -90 71 -180 79 -199 l14 -35 82 205 c45 113 81 207 80 209 -2 2 -38
-29 -81 -68 -43 -39 -80 -71 -83 -71 -3 1 -41 34 -84 74 l-79 74 12 113 c14
136 32 219 68 318 l26 74 15 -29 c54 -103 105 -263 120 -379 l8 -60 17 55 c10
30 24 104 33 165 35 246 123 411 249 471 80 38 91 34 99 -34z m-694 -1227 c11
-66 23 -127 26 -136 3 -13 -28 -27 -154 -73 -86 -31 -161 -56 -166 -56 -4 0
12 28 36 63 25 34 87 124 138 201 52 76 95 135 97 130 1 -5 11 -63 23 -129z
m2614 -77 c70 -104 124 -188 121 -188 -4 0 -78 25 -166 57 -127 45 -158 59
-154 72 10 33 34 158 40 214 6 47 10 56 20 45 7 -7 69 -97 139 -200z"/>
<path d="M5031 6339 c-67 -30 -126 -83 -166 -149 l-37 -60 57 -58 c66 -65 102
-124 165 -271 42 -95 70 -135 85 -120 3 4 28 57 55 120 65 147 103 209 169
274 l53 54 -27 47 c-43 73 -92 121 -157 154 -73 36 -133 39 -197 9z"/>
<path d="M4390 5189 c0 -2 47 -96 104 -208 l103 -203 80 153 c111 213 134 259
128 259 -3 0 -47 -30 -97 -66 -51 -36 -97 -68 -103 -70 -6 -3 -45 20 -86 49
-90 65 -129 91 -129 86z"/>
<path d="M4930 5118 c22 -40 73 -133 113 -205 39 -73 74 -133 77 -133 6 0 229
404 225 408 -2 2 -50 -27 -107 -64 -56 -37 -110 -68 -118 -68 -8 0 -61 30
-117 67 -57 37 -105 67 -108 67 -3 0 13 -33 35 -72z"/>
<path d="M5532 4985 c57 -112 105 -205 108 -205 6 0 210 404 205 408 -1 2 -47
-29 -101 -68 -54 -39 -104 -68 -111 -66 -6 3 -52 34 -102 70 -50 36 -93 66
-96 66 -3 0 41 -92 97 -205z"/>
<path d="M4415 4704 c48 -82 97 -167 155 -268 30 -52 57 -96 60 -96 7 0 180
403 175 408 -2 2 -44 -26 -95 -63 -50 -36 -97 -68 -104 -71 -7 -3 -53 24 -102
59 -122 87 -122 87 -89 31z"/>
<path d="M4937 4662 c120 -218 178 -322 183 -322 6 0 230 404 226 408 -2 1
-52 -29 -112 -68 -59 -38 -111 -70 -114 -70 -3 0 -54 32 -114 70 -59 39 -109
70 -112 70 -3 0 17 -39 43 -88z"/>
<path d="M5431 4742 c2 -5 42 -98 89 -206 65 -152 87 -193 96 -184 8 10 139
231 232 393 7 12 -26 -9 -126 -81 -41 -30 -78 -54 -81 -54 -3 0 -44 27 -91 61
-97 70 -124 85 -119 71z"/>
<path d="M4482 4249 c19 -35 70 -128 112 -206 43 -79 79 -143 81 -143 3 0 29
65 125 313 21 53 36 97 33 97 -3 0 -46 -32 -96 -71 -103 -82 -86 -82 -197 6
-94 75 -97 75 -58 4z"/>
<path d="M5012 4107 c56 -114 105 -207 108 -207 3 0 52 93 108 207 115 229
117 220 -26 117 -41 -30 -78 -54 -82 -54 -4 0 -41 24 -82 54 -143 103 -141
112 -26 -117z"/>
<path d="M5419 4263 c10 -27 45 -115 77 -198 31 -82 60 -153 64 -158 3 -4 56
84 117 195 61 112 109 205 107 207 -2 3 -17 -7 -32 -21 -35 -32 -149 -118
-156 -118 -4 0 -47 32 -96 70 -49 39 -92 70 -95 70 -2 0 4 -21 14 -47z"/>
<path d="M5012 3665 c57 -113 105 -205 108 -205 3 0 51 92 108 205 56 113 100
205 97 205 -2 0 -48 -31 -101 -70 -53 -38 -100 -70 -104 -70 -4 0 -51 32 -104
70 -53 39 -99 70 -101 70 -3 0 41 -92 97 -205z"/>
<path d="M3491 2885 c-36 -31 -55 -84 -46 -127 10 -44 86 -122 143 -146 26
-11 68 -23 94 -27 46 -7 184 10 192 24 3 4 -18 17 -45 29 -58 27 -89 66 -127
158 -34 83 -72 114 -138 114 -31 0 -51 -7 -73 -25z"/>
<path d="M6605 2892 c-31 -19 -33 -22 -85 -134 -32 -70 -71 -109 -129 -129
-18 -6 -29 -15 -24 -20 14 -14 146 -31 193 -24 139 20 259 138 236 231 -4 15
-22 42 -41 61 -27 27 -40 33 -76 33 -25 0 -57 -8 -74 -18z"/>
<path d="M4528 2677 c-14 -12 -40 -47 -57 -77 -41 -75 -89 -119 -152 -140
l-53 -17 54 -20 c121 -45 231 -38 317 20 85 57 113 129 78 197 -31 60 -135 81
-187 37z"/>
<path d="M5564 2681 c-55 -34 -70 -115 -31 -172 73 -109 231 -144 387 -86 l54
20 -52 17 c-66 22 -102 56 -153 141 -21 36 -50 74 -63 83 -34 22 -104 20 -142
-3z"/>
</g>
</svg>
