<?xml version="1.0" standalone="no"?>
<!DOCTYPE svg PUBLIC "-//W3C//DTD SVG 20010904//EN"
 "http://www.w3.org/TR/2001/REC-SVG-20010904/DTD/svg10.dtd">
<svg version="1.0" xmlns="http://www.w3.org/2000/svg"
 width="360.000000pt" height="360.000000pt" viewBox="0 0 360.000000 360.000000"
 preserveAspectRatio="xMidYMid meet">
<metadata>
Created by potrace 1.15, written by Peter Selinger 2001-2017
</metadata>
<g transform="translate(0.000000,360.000000) scale(0.100000,-0.100000)"
fill="#000000" stroke="none">
<path d="M1593 3353 c-7 -2 -13 -11 -13 -18 0 -7 -9 -15 -20 -18 -14 -3 -20
-14 -20 -31 0 -14 9 -34 20 -43 24 -21 25 -44 4 -88 -13 -28 -21 -33 -64 -38
-56 -7 -91 -26 -110 -62 -8 -14 -35 -39 -62 -55 -26 -16 -48 -34 -48 -40 0 -5
24 -10 54 -10 29 0 73 -7 96 -15 23 -8 62 -15 85 -15 37 0 48 -5 74 -35 26
-30 31 -44 31 -85 0 -68 -7 -80 -44 -80 -57 0 -192 -28 -254 -53 -120 -49
-200 -120 -263 -235 -50 -90 -97 -140 -138 -148 -36 -8 -36 -26 0 -34 l24 -6
-22 -8 c-26 -8 -43 -1 -43 20 0 8 -4 14 -10 14 -18 0 -42 -49 -39 -79 2 -17
-3 -37 -13 -48 -8 -10 -19 -28 -22 -40 -6 -18 -15 -23 -42 -23 -45 0 -69 -38
-79 -123 -3 -34 -13 -87 -21 -117 -8 -30 -14 -80 -14 -112 0 -56 -15 -108 -32
-108 -4 0 -8 -7 -8 -15 0 -19 10 -19 37 0 21 15 22 14 25 -27 2 -24 -3 -56
-11 -71 -7 -16 -17 -72 -22 -125 -4 -53 -11 -107 -15 -119 -8 -27 2 -29 29 -5
20 17 20 17 3 -9 -9 -15 -26 -29 -38 -32 -18 -5 -19 -8 -8 -21 19 -23 38 -20
71 14 27 27 30 27 23 7 -17 -56 -25 -67 -44 -67 -23 0 -27 -29 -8 -48 23 -23
57 -14 78 21 26 41 25 33 -5 -91 -37 -152 -36 -157 35 -227 65 -64 76 -95 35
-95 -30 0 -32 -13 -4 -41 29 -29 68 -22 95 18 l21 31 17 -53 c18 -58 67 -110
114 -121 15 -4 39 -20 54 -35 43 -46 64 -33 33 21 -22 39 -18 49 5 12 27 -44
79 -94 90 -87 5 3 -1 23 -14 43 -14 20 -38 82 -55 136 -38 122 -67 168 -121
192 -22 10 -40 22 -40 27 0 4 19 -2 41 -15 41 -23 85 -71 106 -118 68 -149
125 -260 134 -260 21 0 170 -160 176 -190 3 -16 10 -27 15 -24 16 10 2 84 -23
117 l-22 30 34 -19 c18 -11 50 -36 71 -56 45 -45 52 -47 46 -13 l-5 24 28 -20
c40 -28 279 -53 279 -29 0 16 -51 36 -140 55 -47 9 -97 23 -111 31 -49 25
-101 104 -69 104 6 0 32 -23 59 -50 60 -62 99 -78 140 -57 28 14 31 13 58 -15
61 -65 109 -73 178 -29 40 26 50 28 76 19 17 -6 36 -19 42 -29 17 -27 30 -23
23 6 -7 28 -7 29 28 15 37 -14 139 -16 144 -2 2 8 11 8 29 1 14 -5 42 -9 62
-9 20 1 56 -4 81 -9 77 -17 250 -11 250 9 0 4 -26 10 -57 12 -32 3 -74 13 -93
22 -19 9 -26 13 -15 10 11 -4 63 -9 115 -12 91 -4 100 -2 219 38 120 40 158
45 204 25 12 -5 17 -3 17 9 0 9 -11 21 -25 26 -15 6 -23 15 -19 23 4 10 -7 16
-40 20 -49 7 -114 37 -202 93 -137 88 -228 106 -319 63 -64 -30 -59 -47 16
-48 77 -1 117 -11 259 -66 63 -25 135 -50 159 -56 23 -5 40 -13 37 -16 -7 -7
-84 8 -196 39 -41 11 -118 31 -170 45 -90 25 -98 25 -151 11 l-57 -14 22 29
c30 41 30 134 -1 176 -13 16 -23 32 -23 34 0 3 17 -1 38 -9 20 -7 62 -14 92
-14 30 -1 48 -4 40 -6 -45 -15 -110 -49 -108 -56 2 -5 51 -11 108 -13 134 -4
224 -25 328 -77 46 -22 86 -38 89 -34 21 20 -125 126 -224 162 -87 32 -78 41
24 25 48 -7 81 -20 111 -41 58 -41 68 -28 16 19 -86 76 -215 121 -354 121 -82
1 -84 1 -57 16 42 23 164 46 204 38 19 -4 48 -18 64 -31 16 -14 32 -23 35 -20
9 8 -4 42 -27 71 -65 83 -229 80 -365 -5 l-49 -31 28 29 c33 36 35 72 3 102
-30 28 -46 20 -46 -23 0 -36 -51 -92 -105 -115 -38 -16 -114 -64 -115 -72 0
-4 24 -9 53 -11 92 -8 141 -65 113 -133 -8 -18 -23 -38 -34 -44 -24 -13 -88
-13 -117 -1 -16 7 -13 9 17 9 28 1 42 8 62 32 31 37 33 58 6 92 -38 48 -100
45 -159 -7 l-24 -21 17 32 c9 18 16 34 16 36 0 3 -28 7 -62 9 -35 3 -78 11
-97 19 -34 15 -34 15 35 11 131 -7 289 45 338 111 48 65 12 148 -91 214 -60
38 -75 37 -51 -5 49 -86 43 -155 -17 -192 -40 -25 -152 -50 -215 -49 l-45 1
40 9 c113 26 132 32 163 51 86 53 50 139 -82 196 -35 16 -43 10 -28 -23 28
-60 3 -101 -76 -129 -59 -21 -157 -29 -212 -18 l-45 10 55 1 c133 3 207 61
186 146 -9 34 -19 31 -39 -11 -19 -39 -82 -74 -132 -73 l-30 1 30 7 c86 21
144 82 152 159 l5 47 -44 -47 c-82 -87 -225 -128 -293 -84 -15 10 -29 15 -33
12 -3 -3 -17 2 -31 11 -23 15 -41 18 -129 22 -12 1 -21 5 -20 10 2 6 -13 23
-32 40 l-35 30 40 -19 c36 -18 75 -26 75 -16 0 3 -35 40 -78 83 -44 44 -87 99
-100 126 -29 62 -46 62 -39 0 l5 -48 -18 35 c-18 34 -18 35 6 63 13 16 24 34
24 40 0 7 14 -13 30 -42 146 -264 418 -383 595 -261 52 36 109 111 123 162 29
105 -69 244 -180 255 -55 5 -87 -12 -115 -62 -28 -49 -28 -70 -5 -117 18 -35
18 -36 -1 -62 -23 -32 -73 -35 -132 -7 -37 18 -38 19 -13 20 67 2 108 51 108
130 0 45 -15 54 -30 17 -11 -29 -47 -56 -75 -55 -19 0 -19 0 1 9 29 11 61 54
69 91 11 48 -8 56 -52 21 -21 -16 -51 -32 -68 -36 -26 -5 -27 -5 -10 5 59 34
93 96 80 146 l-6 26 -32 -30 c-18 -17 -42 -36 -54 -42 -30 -15 -145 -14 -167
2 -15 11 -12 12 22 9 32 -3 42 0 56 19 22 31 21 53 -1 44 -15 -5 -16 -4 -5 6
19 20 14 29 -18 29 -19 0 -41 11 -62 31 -20 18 -24 25 -11 17 27 -15 38 -6 24
20 -6 12 -11 31 -11 44 l0 22 16 -22 c23 -33 34 -27 34 21 0 61 18 115 42 128
36 19 44 -4 20 -62 -28 -67 -29 -134 -3 -149 11 -5 28 -10 39 -10 10 0 36 -13
58 -30 21 -16 45 -30 52 -30 18 0 26 28 13 43 -8 11 -5 13 18 9 16 -2 32 1 36
7 10 18 -14 41 -44 42 -25 0 -25 0 -3 9 12 5 22 16 22 25 0 18 -51 20 -99 4
-19 -7 -36 -8 -41 -3 -4 5 1 34 11 64 10 30 19 61 19 68 0 35 66 93 154 136
169 83 232 162 260 324 18 106 10 200 -25 307 -27 80 -57 123 -135 197 l-65
62 53 25 c37 18 57 35 67 58 8 17 24 37 37 44 13 7 26 20 29 29 7 23 -4 50
-20 50 -8 0 -20 6 -27 14 -11 10 -110 39 -121 35 -1 0 -8 -3 -14 -6z m186
-1802 c15 -21 21 -45 21 -83 0 -67 -39 -136 -93 -161 -92 -44 -243 -1 -350
100 -70 66 -95 100 -37 50 64 -56 180 -116 237 -124 67 -9 111 23 104 75 -1 9
6 11 23 6 42 -10 76 33 76 96 0 54 -11 63 -39 29 -15 -18 -21 -20 -39 -10 -22
12 -28 31 -15 44 3 4 26 7 49 7 36 0 46 -5 63 -29z m-924 -442 c24 -2 29 -4
65 -27 25 -16 48 -22 79 -20 l44 2 12 -46 12 -47 -43 30 c-64 44 -171 59 -237
33 -9 -3 -12 16 -13 65 l0 70 33 -30 c19 -16 40 -30 48 -30z m574 -181 c29
-36 54 -122 46 -159 -6 -24 -3 -27 29 -33 20 -4 36 -11 36 -15 0 -5 -21 -3
-47 5 -57 17 -110 18 -116 2 -4 -9 -8 -10 -14 -3 -4 6 -30 21 -56 34 -47 24
-120 91 -153 141 -12 18 -6 15 22 -11 59 -55 100 -73 171 -73 l63 -1 -6 -32
c-8 -41 17 -46 34 -8 25 54 13 114 -31 163 -11 12 -16 22 -11 21 5 0 20 -14
33 -31z m-354 -68 c19 -12 41 -20 47 -18 7 3 31 -19 54 -49 57 -73 133 -153
145 -153 6 0 8 -4 4 -9 -3 -5 1 -29 9 -53 11 -30 12 -44 4 -49 -6 -4 -7 -12
-3 -19 5 -9 4 -11 -3 -6 -7 4 -17 27 -23 52 -16 61 -35 57 -48 -9 -6 -27 -10
-20 -35 59 -54 167 -103 233 -192 256 -31 9 -43 17 -39 26 3 7 5 21 5 30 1 13
6 10 21 -10 11 -15 35 -37 54 -48z m1247 -67 c45 -41 46 -140 1 -193 -44 -52
-100 -57 -164 -13 l-27 18 60 0 c55 0 62 3 89 33 48 54 38 124 -24 163 l-32
21 40 -7 c22 -4 48 -14 57 -22z m-462 -100 l35 -38 -40 38 c-23 20 -44 37 -48
37 -13 0 -7 -28 10 -41 20 -17 73 -131 73 -158 0 -30 11 -51 26 -51 8 0 14 5
14 11 0 5 5 7 10 4 15 -9 12 -51 -5 -65 -27 -23 -62 -2 -120 73 -31 39 -70 80
-88 90 -17 9 -25 17 -17 17 26 0 76 -36 111 -79 18 -23 36 -38 41 -33 11 11
-16 108 -36 131 -10 11 -32 26 -49 35 l-32 16 28 0 c31 0 35 11 11 31 -10 8
-39 13 -75 12 l-59 -1 21 29 c17 24 24 27 39 19 10 -6 22 -15 25 -20 12 -20
27 -10 23 15 l-5 24 36 -28 c20 -16 52 -47 71 -68z m136 21 c30 -4 54 -12 55
-18 3 -44 8 -59 28 -80 33 -35 143 -88 196 -93 43 -5 44 -6 25 -20 -13 -9 -31
-12 -50 -8 -20 4 -30 3 -30 -5 0 -7 -40 24 -89 69 -119 109 -133 106 -74 -14
32 -65 19 -50 -49 55 -31 47 -66 96 -79 109 -19 20 -20 23 -5 18 10 -4 42 -10
72 -13z m-356 -80 c-19 -19 -22 -27 -11 -33 9 -6 10 -11 2 -15 -22 -14 -10
-25 22 -20 20 4 39 0 52 -10 19 -14 18 -15 -14 -6 -42 12 -111 -6 -111 -28 0
-8 6 -12 13 -9 25 10 92 -29 130 -76 32 -40 35 -47 19 -47 -10 0 -47 22 -81
50 -66 53 -109 64 -137 36 -16 -17 -18 -59 -4 -87 6 -10 9 -19 7 -19 -6 0 -57
78 -57 87 0 5 14 14 31 22 47 21 89 85 89 138 0 43 0 43 37 43 l36 0 -23 -26z"/>
</g>
</svg>
