<?xml version="1.0" standalone="no"?>
<!DOCTYPE svg PUBLIC "-//W3C//DTD SVG 20010904//EN"
 "http://www.w3.org/TR/2001/REC-SVG-20010904/DTD/svg10.dtd">
<svg version="1.0" xmlns="http://www.w3.org/2000/svg"
 width="338.000000pt" height="338.000000pt" viewBox="0 0 338.000000 338.000000"
 preserveAspectRatio="xMidYMid meet">
<metadata>
Created by potrace 1.15, written by Peter Selinger 2001-2017
</metadata>
<g transform="translate(0.000000,338.000000) scale(0.100000,-0.100000)"
fill="#000000" stroke="none">
<path d="M1929 3088 c-73 -100 -129 -255 -142 -398 -2 -19 -20 -69 -39 -110
-46 -94 -67 -172 -75 -277 -3 -46 -8 -83 -9 -83 -2 0 -23 19 -45 41 l-41 41
16 50 c11 36 16 88 16 183 0 83 6 162 16 210 12 60 13 83 5 102 -11 24 -13 25
-120 21 l-108 -3 -55 -55 c-30 -30 -69 -65 -86 -78 -18 -13 -35 -34 -38 -47
-4 -15 -15 -25 -34 -29 -20 -3 -46 -26 -82 -70 -51 -61 -54 -69 -67 -153 -17
-108 -17 -162 1 -233 24 -97 18 -94 138 -60 58 17 147 40 198 50 100 21 124
31 160 63 28 26 43 19 93 -47 34 -44 37 -54 43 -138 9 -132 7 -358 -3 -358 -5
0 -14 7 -21 15 -7 8 -19 15 -26 15 -8 0 -14 7 -14 16 0 65 -101 267 -159 319
-22 19 -22 19 -64 -3 -44 -23 -107 -77 -107 -91 0 -5 7 -25 16 -46 8 -20 14
-39 12 -41 -2 -2 -38 13 -80 33 -94 44 -129 41 -191 -17 -39 -35 -46 -38 -87
-33 -54 6 -119 -17 -127 -46 -2 -10 -27 -29 -56 -42 -76 -36 -105 -64 -122
-121 -8 -28 -30 -68 -50 -89 -21 -23 -35 -49 -35 -64 0 -14 -11 -48 -25 -75
-28 -55 -30 -80 -14 -145 9 -35 8 -56 -5 -107 -21 -83 -20 -147 1 -178 30 -45
77 -95 86 -92 5 1 6 -2 2 -7 -10 -17 50 -136 81 -160 16 -12 41 -25 56 -28 16
-3 28 -9 28 -13 0 -16 72 -98 96 -109 14 -6 48 -30 75 -52 41 -36 52 -40 76
-34 15 5 63 7 106 6 52 -1 84 3 100 13 12 7 39 17 59 20 50 9 96 49 120 105
10 24 28 51 39 59 10 7 28 31 39 53 11 21 23 39 26 39 8 0 57 -111 95 -215
l32 -90 -2 -252 c-3 -245 -2 -253 17 -253 18 0 19 7 15 174 -2 96 1 177 5 180
15 9 67 -224 66 -291 -1 -60 0 -63 22 -63 23 0 24 2 18 73 -4 41 1 149 10 252
10 99 23 272 29 384 10 173 15 205 29 215 9 5 20 7 24 3 7 -6 -5 -177 -26
-377 -5 -52 -14 -169 -20 -260 -5 -91 -13 -193 -16 -228 -7 -59 -6 -62 15 -62
20 0 21 5 21 83 -1 116 42 637 52 637 4 0 8 -13 8 -28 0 -16 14 -48 31 -71 28
-39 30 -47 23 -97 -5 -41 -3 -60 10 -79 9 -13 16 -33 16 -44 0 -42 24 -72 87
-106 46 -25 76 -35 109 -35 25 0 56 -7 70 -17 24 -15 28 -15 90 11 60 24 67
25 87 11 33 -23 68 -18 141 20 37 19 75 35 85 35 25 0 46 26 75 91 13 31 37
65 52 76 28 21 42 68 50 168 2 28 6 67 10 87 5 29 1 46 -15 73 -12 20 -21 45
-21 55 0 10 -12 32 -26 49 -20 25 -26 43 -29 98 -4 60 -7 71 -33 94 -20 18
-45 28 -82 32 -29 4 -58 11 -63 16 -6 6 -19 6 -34 0 -24 -9 -50 2 -98 41 -30
25 -127 45 -153 31 -20 -11 -21 -9 -24 133 -3 128 -5 148 -24 173 -49 66 -123
28 -188 -96 -41 -78 -98 -243 -116 -339 -7 -34 -17 -65 -22 -68 -5 -4 -7 8 -3
28 3 18 10 159 15 313 9 267 21 375 41 375 5 0 9 -6 9 -13 0 -20 77 -93 119
-113 55 -26 117 -28 206 -6 125 31 154 35 252 36 109 1 132 14 178 97 17 30
45 76 63 101 86 124 97 216 40 325 -20 39 -39 92 -43 123 -6 46 -14 61 -46 92
-23 22 -46 57 -55 85 -35 103 -113 177 -219 209 -64 19 -282 54 -336 54 -44 0
-66 -12 -162 -92 -35 -29 -69 -48 -83 -48 -19 0 -29 -8 -40 -35 -7 -19 -14
-42 -14 -52 0 -10 -14 -47 -30 -81 -17 -35 -30 -76 -30 -90 0 -15 13 -69 29
-119 24 -74 28 -104 24 -148 -7 -69 12 -122 74 -206 l44 -61 -16 -61 c-19 -72
-21 -105 -36 -487 -9 -241 -13 -287 -27 -298 -9 -6 -20 -12 -24 -12 -5 0 -6
80 -3 177 8 284 8 321 -4 458 -21 253 -50 392 -108 515 -34 73 -35 77 -29 165
4 50 13 118 21 153 20 83 79 210 102 219 33 12 117 76 177 132 65 63 114 133
141 203 l18 48 -32 27 c-17 16 -36 33 -43 38 -15 12 -94 45 -108 45 -5 0 -24
-19 -41 -42z m-195 -1085 c34 -105 56 -233 64 -369 8 -126 -4 -148 -26 -48
-11 49 -18 63 -42 78 l-30 17 0 200 c0 109 2 199 4 199 2 0 16 -35 30 -77z
m471 -467 c23 -16 32 -97 27 -238 l-3 -88 -31 0 c-45 0 -105 -45 -133 -100
-13 -25 -31 -52 -40 -60 -9 -7 -22 -28 -30 -47 -11 -25 -20 -33 -39 -33 -33 0
-33 7 3 150 55 217 109 340 176 399 41 35 44 36 70 17z m-403 -498 c-3 -109
-5 -114 -32 -143 -16 -16 -41 -56 -55 -87 -15 -32 -29 -58 -32 -58 -10 0 9
175 20 188 6 7 18 37 28 65 14 42 66 147 72 147 1 0 1 -51 -1 -112z m-150
-378 c-6 -69 -12 -97 -17 -83 -4 12 -26 70 -50 128 -24 58 -40 107 -37 109 4
2 19 6 34 10 15 3 38 20 50 37 l23 31 3 -64 c1 -34 -2 -110 -6 -168z m143 148
c-37 -509 -44 -602 -51 -595 -3 2 -21 64 -41 138 -36 132 -36 135 -25 224 6
50 21 119 33 155 21 64 67 150 81 150 4 0 5 -33 3 -72z"/>
</g>
</svg>
