<?xml version="1.0" standalone="no"?>
<!DOCTYPE svg PUBLIC "-//W3C//DTD SVG 20010904//EN"
 "http://www.w3.org/TR/2001/REC-SVG-20010904/DTD/svg10.dtd">
<svg version="1.0" xmlns="http://www.w3.org/2000/svg"
 width="234.000000pt" height="187.000000pt" viewBox="0 0 234.000000 187.000000"
 preserveAspectRatio="xMidYMid meet">
<metadata>
Created by potrace 1.15, written by Peter Selinger 2001-2017
</metadata>
<g transform="translate(0.000000,187.000000) scale(0.100000,-0.100000)"
fill="#000000" stroke="none">
<path d="M45 1830 c2 -4 45 -31 93 -59 291 -169 436 -257 439 -266 2 -6 -33
-29 -78 -50 -44 -22 -85 -45 -90 -51 -7 -9 35 -34 156 -93 91 -44 165 -83 165
-87 0 -4 -22 -31 -50 -60 -44 -47 -50 -58 -50 -97 0 -31 8 -56 26 -83 15 -21
41 -71 59 -110 18 -39 49 -97 70 -129 l37 -59 -25 -80 c-14 -45 -50 -160 -81
-256 -64 -201 -66 -188 43 -239 94 -43 204 -69 324 -77 81 -5 105 -4 113 7 6
8 18 50 28 94 20 89 81 305 97 347 6 15 21 34 34 42 12 8 48 49 79 90 31 42
62 76 69 76 7 0 82 -24 167 -54 514 -182 613 -216 617 -212 2 2 -115 75 -261
162 -146 88 -264 163 -263 169 2 5 38 30 80 55 50 29 72 48 66 55 -5 5 -74 41
-152 80 l-142 70 3 34 c6 58 -24 118 -72 146 -24 14 -50 25 -59 25 -9 0 -24
14 -32 30 -20 38 -70 70 -111 70 -23 0 -34 6 -42 26 -16 33 -74 57 -126 51
-34 -3 -46 1 -68 21 -22 20 -41 27 -86 30 -55 4 -61 2 -95 -28 -32 -27 -39
-30 -58 -19 l-23 12 21 16 c12 9 47 31 77 49 31 18 56 37 56 41 0 4 -30 16
-67 27 -38 12 -207 67 -378 124 -420 139 -515 169 -510 160z m548 -195 c196
-64 357 -121 357 -125 0 -4 -32 -26 -70 -49 -39 -23 -68 -46 -65 -52 4 -5 29
-21 56 -34 32 -17 49 -32 49 -44 0 -16 -7 -19 -49 -18 -44 2 -54 -2 -84 -31
l-34 -33 -153 71 c-84 38 -155 71 -157 73 -2 2 40 26 92 53 52 27 95 54 95 59
-1 6 -95 63 -210 129 -185 104 -241 139 -197 124 6 -3 173 -58 370 -123z
m1106 -686 c86 -45 159 -84 164 -88 4 -4 -27 -29 -68 -55 -41 -26 -75 -51 -75
-54 0 -4 81 -56 180 -116 99 -60 179 -111 177 -112 -4 -5 -69 16 -252 81 -88
31 -220 78 -294 104 -74 26 -136 51 -138 56 -1 6 27 30 62 54 36 24 65 48 65
52 0 4 -13 12 -30 18 -16 5 -30 13 -30 17 0 9 73 124 79 124 2 0 74 -36 160
-81z"/>
</g>
</svg>
