<?xml version="1.0" encoding="utf-8"?>
<!-- Generator: Adobe Illustrator 21.0.0, SVG Export Plug-In . SVG Version: 6.00 Build 0)  -->
<svg version="1.1" xmlns="http://www.w3.org/2000/svg" xmlns:xlink="http://www.w3.org/1999/xlink" x="0px" y="0px"
	 viewBox="0 0 338 314" style="enable-background:new 0 0 338 314;" xml:space="preserve">
<style type="text/css">
	.st0{fill:#5A5981;}
</style>
<g id="Слой_1">
	<g transform="translate(0.000000,314.000000) scale(0.100000,-0.100000)">
		<path class="st0" d="M3002.5,1598.3c-66.1,674.1-578.2,788.5-582.5,792.7c-3.6,3.5-5.6,4.1-15,4.5c-8.5,0.4-15-1.5-15,3.5
			c0,4-19,14-42,21c-55,17-77,36-99,85c-22,48-25,139-5,178c23,43-8,35-39-10c-23-35-25-36-25-13c0,14-7,38-15,54c-8,15-15,35-15,43
			c0,23-23,10-45-25c-11-17-26-31-32-32c-15,0-17-15-4-39c7-13,5-17-9-17s-17,7-14,31c2,16,1,24-2,18c-3-7-10-13-15-13s-8,6-6,13
			c1,6-4,11-10,10c-8-2-12,5-10,17c5,31,17,37,33,16c14-19,14-19,14,2c0,12-5,22-11,22c-5,0-7,4-4,10c6,10-23,61-34,59
			c-3,0-23-21-45-45c-27-30-42-41-50-35c-7,6-18,6-25,2c-10-7-11-13-1-30l11-22l25,23c14,13,36,33,50,46c13,13,24,18,24,11
			c0-8,4-8,15,1c12,10,15,10,15-3c0-8-7-20-15-27s-13-16-10-20c2-4-4-15-15-25s-20-24-20-30c0-7-7-18-15-25c-19-15-69-4-62,14
			c3,7-4,18-14,24c-10,7-19,17-19,23c0,5,5,7,11,3c8-5,8-1,0,13c-10,21-42,44-74,56c-11,4-16,3-12-3c3-6,12-10,19-10
			c20,0,39-73,34-132c-3-39-13-68-34-99c-29-43-31-44-96-51c-72-7-198-39-256-65c-20-9-39-17-42-17c-3-1-11-5-17-9c-7-5-13-6-13-2
			c0,10-103-46-155-85c-161-120-274-304-321-525c-17-81-20-294-4-374c15-78,14-82-14-75c-15,3-34,0-47-10c-20-14-24-13-47,4
			c-15,12-39,20-61,19c-20-1-27-3-16-6c44-9,46-12,35-33c-13-25-59-38-70-19c-5,7-4,22,1,33c8,17,6,16-11-4c-16-18-21-33-17-57
			c6-37,3-40-19-18c-18,18-83,19-105,2c-25-19-39-52-39-91c0-33,20-66,41-66c5,0,9-22,9-49c0-60,36-111,77-111c22,0,24-3,19-25
			c-4-14,1-39,11-59c19-40,66-62,114-52c22,4,31,1,39-14c6-11,28-25,49-31c34-10,40-16,45-49c3-20,14-44,23-52c28-25,79-32,111-15
			c35,17,117,9,152-16c13-9,35-17,49-17c13,0,39-12,58-26c21-16,43-24,60-22c18,2,36-6,56-24c35-33,74-36,110-7c21,16,31,18,46,9
			c24-12,101,14,101,35c0,9,12,11,43,8c28-3,54,0,73,10c28,14,31,14,57-9c33-28,48-30,99-7c36,16,43,27,40,64c-2,27,64,32,97,8
			c34-25,94-18,116,14l15,21l45-22c25-12,45-25,45-29c-1-18-74-106-92-111c-12-3-41-16-65-29c-24-12-52-23-63-23c-10,0-25-7-34-15
			c-8-9-59-27-113-40c-108-28-111-29-232-46c-287-41-712,77-962,266c-101,75-252,232-281,290c-11,22-29,49-39,60s-35,52-55,90
			c-43,82-49,90-63,81c-29-18,153-279,287-412c100-99,239-195,367-255c60-27,84-43,75-49c-26-16-3-57,42-74c77-28,240-50,448-60
			c165-9,374,23,355,54c-3,5-4,10-1,10c2,0,118,29,258,63c139,35,279,69,311,76c94,20,111,61,30,76l-36,6l83,50
			c107,63,179,119,253,194c60,62,119,144,123,172c2,9,7,19,11,22c19,13,62.6,166.7,63.7,180.9c1.4,5.4,3.3,19.1,9.3,35.1
			c6,17,14.2,43.4,17.2,59.4c12,53.6,2.1-14.8,17.8,94.6 M1628,2197c8-6,12-6,12,1c0,14,83,7,88-8c2-5,8-10,13-10c6,0,7,5,4,10
			c-10,16,11,12,25-5c7-8,16-12,21-9s9-4,9-15c0-26,8-27,27-3c8,9,12,11,8,4c-10-19,13-41,38-35c16,3,18,2,8-5c-17-12,1-24,23-16
			c9,3,16,1,16-6c0-6-4-9-9-6s-15-2-22-12c-7-9-9-14-5-10c5,4,16,3,23-4c11-9,17-9,24,3c10,16,12,8,3-15c-3-9-11-13-18-10
			c-6,4,2-5,18-20c16-14,34-26,40-26s4-5-4-10c-12-8-13-12-2-19c21-13,11-135-11-139c-21-4-22-22-1-22c8,0,12-5,9-10c-4-6-11-8-16-5
			c-5,4-9,0-9-7s-12-22-27-32c-16-9-20-15-11-12c22,7,33-10,12-18c-8-3-12-10-9-16c3-5-5-15-19-22c-14-6-26-16-26-22s-9-17-21-24
			c-11-7-18-19-15-27c2-7-2-19-10-25c-8-7-14-18-14-25c0-16-27-27-35-15c-10,16-28,11-21-5c4-10-1-15-17-16c-12,0-16-3-9-6
			c20-8,14-22-8-16c-11,3-20,0-20-6s-7-11-16-11s-12,5-8,13c5,7,1,7-10-2c-15-13-19-13-28,0c-7,10-11,11-14,2c-7-17-34-4-27,13
			c7,19-2,18-22-2c-11-12-19-13-29-5c-7,6-16,8-19,4c-4-3-7-1-7,5s-6,9-14,6s-17,0-22,7c-5,8-3,10,5,4c10-5,10-3,0,13
			c-7,11-19,17-30,15c-17-5-49,17-49,32c0,4-7,14-16,22c-13,14-17,14-25,2c-8-11-9-10-7,6c2,13-2,19-11,17c-8-2-11,3-8,12
			c3,8-6,25-21,39s-36,38-47,54c-21,30-37,93-23,93c4,0,8,5,8,11c0,5-6,7-12,3c-8-5-7,0,2,11c10,12,10,16,2,11c-10-6-11-1-6,21
			c4,15,11,30,16,31c5,2,4,10-2,17c-8,10-6,18,11,33c12,12,18,25,14,33c-5,7-4,10,2,6s15,5,21,18c7,14,16,25,22,25c5,0,10,7,10,15
			c0,9,9,15,23,15c12,0,28,9,35,20c7,12,17,18,21,15c14-8,42,6,34,18c-4,6,0,8,10,4c9-3,17-1,19,5s14,12,27,13c12,1,26,6,29,11
			c12,18,45,25,53,12c7-10,11-10,21,1c7,8,8,11,2,8c-7-4-14,0-17,8C1581,2220,1603,2216,1628,2197z"/>
	</g>
</g>
<g id="Слой_2">
</g>
</svg>
