<?xml version="1.0" standalone="no"?>
<!DOCTYPE svg PUBLIC "-//W3C//DTD SVG 20010904//EN"
 "http://www.w3.org/TR/2001/REC-SVG-20010904/DTD/svg10.dtd">
<svg version="1.0" xmlns="http://www.w3.org/2000/svg"
 width="172.000000pt" height="173.000000pt" viewBox="0 0 172.000000 173.000000"
 preserveAspectRatio="xMidYMid meet">
<metadata>
Created by potrace 1.15, written by Peter Selinger 2001-2017
</metadata>
<g transform="translate(0.000000,173.000000) scale(0.100000,-0.100000)"
fill="#000000" stroke="none">
<path d="M1075 1550 c-117 -47 -119 -49 -90 -60 l29 -11 -214 -213 c-118 -117
-228 -222 -245 -234 l-30 -21 87 -88 87 -88 -35 -38 c-33 -36 -34 -40 -20 -56
9 -10 16 -22 16 -27 0 -5 -115 -124 -255 -264 -140 -140 -255 -260 -255 -265
0 -6 16 -26 35 -45 l35 -34 265 264 c253 253 265 263 283 247 25 -23 31 -22
69 15 l33 32 90 -89 90 -90 17 25 c21 32 455 470 465 470 4 0 8 -11 8 -25 0
-14 4 -25 8 -25 8 0 13 13 73 175 l30 80 -28 -27 c-15 -15 -147 -145 -292
-289 l-264 -261 -96 96 -96 96 240 240 c132 132 245 240 252 240 6 0 16 -12
21 -27 9 -26 13 -21 70 97 34 68 60 126 58 128 -2 2 -59 -25 -127 -59 -104
-52 -120 -63 -100 -68 14 -4 26 -11 28 -16 2 -6 -106 -119 -240 -253 l-242
-242 -95 95 -95 95 285 285 c157 157 280 285 275 285 -6 -1 -64 -23 -130 -50z"/>
</g>
</svg>
