<?xml version="1.0" standalone="no"?>
<!DOCTYPE svg PUBLIC "-//W3C//DTD SVG 20010904//EN"
 "http://www.w3.org/TR/2001/REC-SVG-20010904/DTD/svg10.dtd">
<svg version="1.0" xmlns="http://www.w3.org/2000/svg"
 width="182.000000pt" height="353.000000pt" viewBox="0 0 182.000000 353.000000"
 preserveAspectRatio="xMidYMid meet">
<metadata>
Created by potrace 1.15, written by Peter Selinger 2001-2017
</metadata>
<g transform="translate(0.000000,353.000000) scale(0.100000,-0.100000)"
fill="#000000" stroke="none">
<path d="M345 3490 c-3 -5 1 -11 7 -13 7 -3 3 -6 -8 -6 -18 -1 -22 -7 -22 -37
0 -19 -2 -37 -3 -39 -2 -1 -61 -5 -131 -6 -122 -4 -127 -5 -122 -24 12 -39 58
-111 133 -207 75 -97 76 -98 121 -99 25 -1 37 -3 28 -6 -32 -8 -19 -19 20 -15
l37 3 40 -88 c52 -114 75 -141 113 -135 l29 4 -4 -49 c-3 -26 4 -113 16 -193
23 -160 37 -321 46 -510 9 -179 22 -327 50 -557 29 -232 47 -459 46 -553 -1
-36 12 -164 29 -285 17 -121 30 -256 30 -300 0 -44 5 -100 10 -125 5 -25 13
-67 17 -95 l8 -50 105 4 c58 2 119 3 136 4 36 1 35 -4 53 227 5 58 14 139 20
180 7 41 17 136 22 210 6 74 12 158 15 185 2 28 9 109 14 180 6 72 14 155 20
185 8 48 8 43 4 -35 -3 -49 -7 -99 -10 -110 -5 -19 -4 -19 6 -2 7 10 16 86 20
170 5 84 21 307 35 497 15 190 24 365 21 390 -4 31 -3 39 3 25 10 -20 11 3 16
195 1 36 12 138 23 228 12 89 22 164 22 166 0 2 6 4 13 3 67 -2 130 5 117 13
-8 5 -26 10 -40 10 -23 0 -23 1 13 38 21 21 37 48 37 61 0 12 16 47 35 76 31
47 41 54 81 61 l45 9 59 125 c32 69 62 137 66 153 l6 27 -84 0 -84 0 -13 36
c-10 28 -10 38 -1 44 29 18 -65 23 -535 26 -275 1 -551 5 -612 8 -62 2 -115 1
-118 -4z m-84 -260 c76 -80 74 -72 -7 25 -28 33 -54 67 -59 75 -16 29 73 -62
136 -140 35 -43 68 -79 72 -80 5 0 5 5 2 10 -10 17 7 11 22 -7 14 -17 14 -17
8 2 -6 18 -4 18 18 -3 16 -15 30 -20 42 -16 13 5 16 4 11 -4 -11 -17 -57 -15
-78 5 -17 15 -18 15 -18 0 0 -19 -24 -21 -55 -6 -19 9 -18 9 3 5 25 -5 26 -2
12 25 -6 10 -19 19 -29 19 -12 0 -52 38 -101 94 -76 88 -110 118 -110 97 0 -5
19 -32 43 -61 84 -103 126 -163 120 -173 -3 -5 -11 -1 -17 10 -6 11 -46 67
-88 125 -43 58 -78 108 -78 111 0 3 12 7 28 9 21 2 30 -3 40 -22 6 -14 44 -59
83 -100z m1215 102 c-7 -12 23 -54 34 -47 5 3 12 0 16 -6 4 -8 3 -9 -4 -5 -17
11 -15 -9 3 -24 8 -7 15 -9 15 -5 0 4 7 2 15 -5 8 -7 15 -17 15 -23 0 -6 -7
-2 -15 9 -8 10 -14 15 -14 9 0 -19 59 -79 79 -80 11 -1 20 2 20 7 0 4 -4 8
-10 8 -5 0 -34 34 -65 75 -31 42 -59 74 -64 71 -4 -3 -8 1 -8 9 0 11 12 15 39
15 21 0 38 -5 38 -11 0 -5 -5 -7 -12 -3 -16 10 -3 -11 54 -83 47 -60 49 -64
42 -108 l-6 -45 -48 1 c-26 1 -51 -1 -57 -4 -8 -5 -87 69 -122 116 -28 36 1
15 54 -40 30 -32 55 -53 55 -47 0 6 -35 49 -77 95 -43 46 -87 94 -97 107 l-19
22 72 0 c40 0 70 -4 67 -8z m-197 -1007 c-7 -49 -12 -93 -11 -97 4 -14 -12 -8
-35 14 -28 26 -31 6 -3 -22 24 -24 24 -44 5 -215 -35 -310 -58 -457 -72 -462
-11 -4 -10 -9 4 -26 11 -12 14 -21 7 -24 -6 -2 -9 -15 -6 -28 8 -43 22 -16 23
43 0 31 7 100 14 152 l14 95 -6 -85 c-4 -47 -7 -114 -9 -150 -3 -109 -3 -112
-16 -108 -7 3 -18 15 -24 27 -7 13 -15 18 -18 13 -3 -6 8 -24 25 -41 19 -20
28 -37 25 -48 -11 -39 -54 -512 -62 -683 -2 -52 -7 -108 -10 -125 -3 -16 -8
-59 -10 -95 -3 -36 -9 -114 -14 -175 -6 -60 -10 -118 -10 -127 0 -11 -8 -18
-21 -18 -11 0 -17 4 -14 10 3 5 0 7 -8 4 -9 -3 -25 8 -41 28 -14 18 -26 29
-26 24 0 -6 10 -20 22 -33 l22 -23 -22 3 c-12 2 -25 7 -29 12 -5 4 -2 5 5 1
16 -10 15 -1 -2 13 -12 10 -14 8 -12 -13 3 -22 1 -24 -15 -15 -10 5 -38 35
-61 67 -35 47 -44 67 -48 114 -3 31 -2 54 2 52 4 -3 8 -16 8 -30 0 -15 6 -24
15 -24 11 0 15 -11 15 -39 0 -46 8 -71 23 -71 7 0 8 52 4 161 -6 154 -5 161
11 138 13 -19 17 -48 19 -131 1 -69 -2 -108 -9 -108 -6 0 -6 -6 2 -15 6 -8 9
-23 5 -34 -7 -23 13 -39 26 -20 5 8 8 33 7 57 -3 40 5 56 15 30 5 -12 12 194
8 216 -11 53 -16 138 -9 148 13 21 58 -41 51 -71 -3 -13 -7 -40 -8 -60 -3 -51
-4 -53 -16 -45 -8 4 -7 0 1 -15 6 -12 8 -31 5 -42 -6 -16 -10 -138 -6 -176 2
-22 28 -14 35 10 3 12 6 59 6 105 0 45 4 82 8 82 10 0 45 460 42 559 -1 30 1
32 15 21 19 -15 20 -2 1 19 -9 11 -12 34 -8 78 2 35 7 61 11 59 3 -2 7 21 8
52 1 32 3 62 4 67 1 6 -1 25 -5 43 -6 26 -5 32 9 32 14 0 15 3 5 15 -18 21 18
399 37 383 14 -12 18 3 4 18 -5 5 -11 38 -14 74 -3 36 -2 56 2 46 13 -35 19 3
20 134 1 69 6 129 10 133 5 5 6 46 3 90 -5 75 -4 81 11 68 9 -7 14 -18 11 -23
-3 -5 1 -17 9 -26 8 -9 17 -24 19 -32 3 -8 11 32 18 90 8 58 16 96 18 85 2
-10 -2 -60 -9 -110z m-219 -187 c19 -32 29 -125 12 -114 -4 2 -6 -30 -3 -72
l3 -77 -21 19 c-27 24 -27 6 -1 -36 24 -39 28 -77 6 -59 -11 9 -15 8 -20 -6
-4 -9 -1 -21 6 -27 7 -6 10 -7 6 -2 -13 16 -9 31 4 18 14 -14 22 -112 9 -112
-5 0 -12 7 -15 16 -4 9 -9 14 -13 10 -3 -3 1 -14 9 -23 8 -10 15 -38 16 -63
l1 -45 -15 28 c-8 15 -19 27 -24 27 -13 0 -13 167 -1 172 6 2 6 21 1 48 -5 25
-6 67 -3 94 l6 49 18 -24 c10 -13 19 -19 19 -13 0 6 -9 19 -20 29 -14 12 -20
31 -20 58 0 36 1 38 18 26 16 -13 16 -13 2 5 -8 10 -16 30 -17 45 l-3 26 25
-28 c32 -36 32 -21 0 23 -28 38 -29 40 -15 40 6 0 19 -15 30 -32z"/>
</g>
</svg>
